<svg width="49" height="49" viewBox="0 0 49 49" fill="none" xmlns="http://www.w3.org/2000/svg">
<circle cx="24.5" cy="24.5" r="24.5" fill="#F9F9F9"/>
<path d="M30.1158 18.6957V16.558C30.1158 15.8919 29.9846 15.2323 29.7297 14.6169C29.4748 14.0015 29.1011 13.4423 28.6301 12.9713C28.1591 12.5003 27.5999 12.1266 26.9845 11.8717C26.3691 11.6168 25.7095 11.4856 25.0434 11.4856C24.3773 11.4856 23.7177 11.6168 23.1022 11.8717C22.4868 12.1266 21.9276 12.5003 21.4566 12.9713C20.9856 13.4423 20.612 14.0015 20.3571 14.6169C20.1022 15.2323 19.971 15.8919 19.971 16.558V21.6304C19.971 21.8226 20.0473 22.0069 20.1832 22.1428C20.3191 22.2787 20.5034 22.3551 20.6956 22.3551C20.8878 22.3551 21.0721 22.2787 21.208 22.1428C21.3439 22.0069 21.4202 21.8226 21.4202 21.6304V20.1449H27.2173V18.6957H21.4202V16.558C21.4202 15.5971 21.8019 14.6755 22.4814 13.9961C23.1609 13.3166 24.0825 12.9349 25.0434 12.9349C26.0043 12.9349 26.9259 13.3166 27.6053 13.9961C28.2848 14.6755 28.6665 15.5971 28.6665 16.558V21.5942C28.6665 21.7864 28.7429 21.9707 28.8788 22.1066C29.0147 22.2425 29.199 22.3188 29.3912 22.3188C29.5833 22.3188 29.7677 22.2425 29.9036 22.1066C30.0395 21.9707 30.1158 21.7864 30.1158 21.5942V20.1449H33.739V33.1883H16.3478V20.1449H18.5217V18.6957H14.8985V33.2535C14.8985 33.6206 15.0443 33.9726 15.3039 34.2322C15.5635 34.4918 15.9155 34.6376 16.2826 34.6376H33.8042C34.1712 34.6376 34.5233 34.4918 34.7828 34.2322C35.0424 33.9726 35.1882 33.6206 35.1882 33.2535V18.6957H30.1158Z" fill="#292D32"/>
</svg>
