<svg width="49" height="49" viewBox="0 0 49 49" fill="none" xmlns="http://www.w3.org/2000/svg">
<circle cx="24.5" cy="24.5" r="24.5" fill="#F9F9F9"/>
<g clip-path="url(#clip0_2601_191)">
<g clip-path="url(#clip1_2601_191)">
<path d="M22.9494 18.9494C23.4932 18.4055 24.2309 18.1 25 18.1C25.7691 18.1 26.5068 18.4055 27.0506 18.9494C27.5945 19.4932 27.9 20.2309 27.9 21V33C27.9 33.7691 27.5945 34.5068 27.0506 35.0506C26.5068 35.5945 25.7691 35.9 25 35.9C24.2309 35.9 23.4932 35.5945 22.9494 35.0506C22.4055 34.5068 22.1 33.7691 22.1 33V21C22.1 20.2309 22.4055 19.4932 22.9494 18.9494ZM25.7778 33.7778C25.9841 33.5715 26.1 33.2917 26.1 33V21C26.1 20.7083 25.9841 20.4285 25.7778 20.2222C25.5715 20.0159 25.2917 19.9 25 19.9C24.7083 19.9 24.4285 20.0159 24.2222 20.2222C24.0159 20.4285 23.9 20.7083 23.9 21V33C23.9 33.2917 24.0159 33.5715 24.2222 33.7778C24.4285 33.9841 24.7083 34.1 25 34.1C25.2917 34.1 25.5715 33.9841 25.7778 33.7778Z" fill="#292D32" stroke="#FAFAFA" stroke-width="0.2"/>
<path d="M31.9494 12.9494C32.4932 12.4055 33.2309 12.1 34 12.1C34.7691 12.1 35.5068 12.4055 36.0506 12.9494C36.5945 13.4932 36.9 14.2309 36.9 15V33C36.9 33.7691 36.5945 34.5068 36.0506 35.0506C35.5068 35.5945 34.7691 35.9 34 35.9C33.2309 35.9 32.4932 35.5945 31.9494 35.0506C31.4055 34.5068 31.1 33.7691 31.1 33V15C31.1 14.2309 31.4055 13.4932 31.9494 12.9494ZM34.7778 33.7778C34.9841 33.5715 35.1 33.2917 35.1 33V15C35.1 14.7083 34.9841 14.4285 34.7778 14.2222C34.5715 14.0159 34.2917 13.9 34 13.9C33.7083 13.9 33.4285 14.0159 33.2222 14.2222C33.0159 14.4285 32.9 14.7083 32.9 15V33C32.9 33.2917 33.0159 33.5715 33.2222 33.7778C33.4285 33.9841 33.7083 34.1 34 34.1C34.2917 34.1 34.5715 33.9841 34.7778 33.7778Z" fill="#292D32" stroke="#FAFAFA" stroke-width="0.2"/>
<rect x="13.75" y="24.75" width="4.5" height="10.5" rx="2.25" stroke="#292D32" stroke-width="1.5"/>
</g>
</g>
<defs>
<clipPath id="clip0_2601_191">
<rect width="24" height="24" fill="white" transform="translate(13 12)"/>
</clipPath>
<clipPath id="clip1_2601_191">
<rect width="24" height="24" fill="white" transform="translate(13 12)"/>
</clipPath>
</defs>
</svg>
